<?xml version="1.0" standalone="no"?><!DOCTYPE svg PUBLIC "-//W3C//DTD SVG 1.1//EN" "http://www.w3.org/Graphics/SVG/1.1/DTD/svg11.dtd"><svg t="1552888971633" class="icon" style="" viewBox="0 0 1024 1024" version="1.1" xmlns="http://www.w3.org/2000/svg" p-id="3129" xmlns:xlink="http://www.w3.org/1999/xlink" width="200" height="200"><defs><style type="text/css"></style></defs><path d="M85.333333 170.666667v-5.12C87.04 113.783467 113.783467 87.04 165.546667 85.333333h693.76c51.2 1.706667 77.6704 28.450133 79.36 80.213334V256H85.333333v-85.333333z m171.52-0.853334c0 11.946667 3.976533 21.896533 11.946667 29.866667 8.533333 8.533333 18.773333 12.8 30.72 12.8s21.9136-4.266667 29.866667-12.8c8.533333-7.970133 12.8-17.92 12.8-29.866667s-4.266667-22.186667-12.8-30.72c-7.953067-7.953067-17.92-11.946667-29.866667-11.946666s-22.186667 3.976533-30.72 11.946666c-7.970133 8.533333-11.946667 18.773333-11.946667 30.72z m-87.04-42.666666c-11.946667 0-22.186667 3.976533-30.72 11.946666-7.970133 8.533333-11.946667 18.773333-11.946666 30.72s3.976533 21.896533 11.946666 29.866667c8.533333 8.533333 18.773333 12.8 30.72 12.8s21.896533-4.266667 29.866667-12.8c8.533333-7.970133 12.8-17.92 12.8-29.866667s-4.266667-22.186667-12.8-30.72c-7.970133-7.953067-17.92-11.946667-29.866667-11.946666zM455.68 199.68c8.533333-7.970133 12.8-17.92 12.8-29.866667s-4.266667-22.186667-12.8-30.72c-7.970133-7.953067-17.92-11.946667-29.866667-11.946666s-22.186667 3.976533-30.72 11.946666c-7.970133 8.533333-11.946667 18.773333-11.946666 30.72s3.976533 21.896533 11.946666 29.866667c8.533333 8.533333 18.773333 12.8 30.72 12.8s21.896533-4.266667 29.866667-12.8zM426.666667 341.333333l256 170.666667-257.706667 256v-85.333333H341.333333c-155.869867-0.5632-241.2032 84.770133-256 256V768c0-94.429867 33.570133-175.240533 100.693334-242.346667 66.56-66.56 146.773333-99.84 240.64-99.84V341.333333z" p-id="3130" fill="#dbdbdb"></path><path d="M85.333333 955.733333l-0.733866-0.017066A17.066667 17.066667 0 0 1 68.266667 938.666667V768c0-98.696533 35.549867-184.302933 105.693866-254.4128 65.501867-65.501867 144.708267-100.590933 235.639467-104.482133V341.333333a17.066667 17.066667 0 0 1 26.5216-14.199466l256 170.666666a17.066667 17.066667 0 0 1 2.56 26.299734l-257.723733 256A17.066667 17.066667 0 0 1 407.893333 768v-68.266667h-68.0448c-145.851733 0-223.5392 78.6432-237.5168 240.401067A17.066667 17.066667 0 0 1 85.333333 955.733333z m358.4-582.5024v52.599467a17.066667 17.066667 0 0 1-17.066666 17.066667c-88.746667 0-165.649067 31.914667-228.573867 94.839466C134.587733 601.207467 102.4 678.690133 102.4 768v31.744c42.666667-89.565867 122.9824-135.287467 238.984533-134.144H424.96a17.066667 17.066667 0 0 1 17.066667 17.066667v44.322133l213.794133-212.360533L443.733333 373.230933zM853.333333 870.4H170.666667a17.066667 17.066667 0 1 1 0-34.133333h682.666666a17.066667 17.066667 0 1 1 0 34.133333z m85.333334-85.333333a17.066667 17.066667 0 0 1-17.066667-17.066667V273.066667H102.4v238.933333a17.066667 17.066667 0 1 1-34.133333 0V170.666667a17.066667 17.066667 0 0 1 34.133333 0v68.266666h819.2v-68.266666a17.066667 17.066667 0 1 1 34.133333 0v597.333333a17.066667 17.066667 0 0 1-17.066666 17.066667zM853.333333 102.4H170.666667a17.066667 17.066667 0 0 1 0-34.133333h682.666666a17.066667 17.066667 0 1 1 0 34.133333z" p-id="3131" fill="#dbdbdb"></path><path d="M853.333333 870.4v-34.133333h5.973334c41.5232-1.3824 60.910933-20.7872 62.3104-62.8736L921.6 768h34.133333v5.973333c-1.9968 60.398933-36.027733 94.429867-95.863466 96.4096L853.333333 870.4z m102.4-699.733333h-34.133333v-5.12c-1.3824-42.103467-20.7872-61.7472-62.8736-63.146667H853.333333V68.266667h5.973334c60.398933 2.013867 94.446933 36.352 96.4096 96.7168L955.733333 170.666667zM102.4 170.666667H68.266667v-5.12C70.263467 104.618667 104.618667 70.263467 164.983467 68.266667H170.666667v34.133333h-5.12C123.4432 103.799467 103.799467 123.4432 102.4 166.109867V170.666667z" p-id="3132" fill="#dbdbdb"></path></svg>